<svg width="80" height="63" viewBox="0 0 80 63" fill="none" xmlns="http://www.w3.org/2000/svg">
<circle cx="39.5" cy="31.5" r="31.5" fill="white"/>
<path d="M80 34.0001H68.5714L68 43C69.5 38.5 74.2857 34.0001 80 34.0001Z" fill="white"/>
<path d="M-0.000122261 34C4.49986 34.556 8.99986 38.5001 11.3794 43.7167L11.4999 38.0001L8.91075 32.5579C5.43084 33.0992 -0.000122261 34 -0.000122261 34Z" fill="white"/>
<path d="M34.7164 46.2237C34.6666 46.2739 34.5989 46.3021 34.5282 46.3021C34.4575 46.3021 34.3898 46.2739 34.34 46.2237L33.7781 45.6618C33.7268 45.6137 33.6978 45.5465 33.6978 45.4762C33.6978 45.4059 33.7268 45.3388 33.7781 45.2907L38.65 40.4188C38.7245 40.3442 38.8256 40.3022 38.931 40.3021L39.0688 40.3021C39.1742 40.3022 39.2753 40.3442 39.3498 40.4188L44.2217 45.2907C44.273 45.3388 44.302 45.4059 44.302 45.4762C44.302 45.5465 44.273 45.6137 44.2217 45.6618L43.6598 46.2237C43.61 46.2739 43.5423 46.3021 43.4716 46.3021C43.4009 46.3021 43.3331 46.2739 43.2834 46.2237L38.9999 41.9402L34.7164 46.2237Z" fill="#474747"/>
</svg>
